<?xml version="1.0" encoding="UTF-8" standalone="no"?>
<svg
   xmlns:dc="http://purl.org/dc/elements/1.1/"
   xmlns:cc="http://creativecommons.org/ns#"
   xmlns:rdf="http://www.w3.org/1999/02/22-rdf-syntax-ns#"
   xmlns:svg="http://www.w3.org/2000/svg"
   xmlns="http://www.w3.org/2000/svg"
   version="1.1"
   xml:space="preserve"
   style="enable-background:new 0 0 400 400;"
   viewBox="0 0 400 400"
   height="400px"
   width="400px"
   y="0px"
   x="0px"
   id="Layer_1"><metadata
     id="metadata4198"><rdf:RDF><cc:Work
         rdf:about=""><dc:format>image/svg+xml</dc:format><dc:type
           rdf:resource="http://purl.org/dc/dcmitype/StillImage" /><dc:title></dc:title></cc:Work></rdf:RDF></metadata><defs
     id="defs4196" /><style
     id="style4188"
     type="text/css"> .st0{fill:#E95420;} </style><path
     class="st0"
     d="M 200,0 C 89.7,0 0,89.7 0,200 0,310.3 89.7,400 200,400 310.3,400 400,310.3 400,200 400,89.7 310.3,0 200,0 Z"
     id="path4192"
     style="fill:#5e2750;fill-opacity:1" /><path
     id="path4531"
     d="m 128.13663,350.16591 c -0.26647,-26.71428 -13.6593,-48.36418 -45.474096,-73.51023 -12.717788,-10.052 -19.347612,-20.6681 -24.373475,-39.02842 -1.103212,-4.03021 -1.432174,-8.31636 -1.447275,-18.85692 -0.01947,-13.59551 -0.01078,-13.66231 2.598284,-19.95436 7.448408,-17.96269 20.495256,-34.38374 33.555224,-42.23336 4.464786,-2.68353 5.064652,-2.82073 13.483638,-3.08405 9.57212,-0.29937 16.8012,0.76317 21.49942,3.16002 1.64827,0.84088 3.34654,1.52888 3.77393,1.52888 1.53594,0 3.29897,-2.56597 3.29897,-4.80141 0,-1.87372 -0.8928,-2.92631 -5.01514,-5.91273 -15.04707,-10.90084 -23.06963,-24.51465 -23.06963,-39.14777 0,-4.53536 -6.6944,-14.660531 -10.83757,-16.391661 -5.389427,-2.25185 -7.519499,-1.63025 -12.557953,3.66464 -5.928531,6.230281 -8.34307,6.548091 -9.14452,1.20364 -0.723007,-4.82136 0.06548,-9.54137 2.455736,-14.7005 6.833285,-14.74894 15.031201,-18.45926 32.491567,-14.70546 23.39021,5.02867 21.73974,4.80988 29.76979,3.94634 8.16851,-0.87843 15.72125,-0.0131 20.22827,2.31756 3.55534,1.83854 9.78224,7.92345 12.47208,12.1877 2.93139,4.64716 3.76681,11.46848 2.57178,20.999001 l -0.84864,6.76799 5.79773,5.83668 c 3.18874,3.21017 6.07757,5.83667 6.41961,5.83667 0.34205,0 1.34408,-0.72218 2.22675,-1.60484 1.30469,-1.30469 1.60484,-2.67474 1.60484,-7.32532 0,-8.58836 3.23276,-17.016621 10.6744,-27.829701 7.35083,-10.6811 19.51004,-20.32106 30.72434,-24.3586 12.93651,-4.657594 33.62368,-1.70546 51.68222,7.37524 10.99159,5.5271 23.80062,16.0877 27.6684,22.81164 3.03105,5.26932 10.08268,23.719491 21.3278,55.802911 5.79998,16.54789 11.04331,31.04988 11.65183,32.22664 2.86329,5.537 8.70711,8.00338 19.9954,8.43906 11.04381,0.42625 12.43754,0.71309 12.43754,2.55977 0,3.84555 -7.98012,6.48143 -19.71431,6.51174 -12.65598,0.0326 -19.65268,-3.71163 -26.95832,-14.42688 -5.68512,-8.33842 -13.41043,-23.25069 -19.53765,-37.71384 -12.36724,-29.19255 -15.11714,-35.08124 -21.82648,-46.73949 -3.83202,-6.658601 -8.53786,-11.329911 -15.92198,-15.805151 -6.09387,-3.69328 -16.47322,-7.26608 -21.10868,-7.26608 -11.72324,0 -27.78823,8.59552 -37.47796,20.05245 -7.30833,8.641201 -8.22898,11.752441 -11.98667,40.507141 -0.74808,5.72451 -2.08224,12.76576 -2.96479,15.64723 -3.13362,10.23103 -9.69411,18.48918 -17.89294,22.52313 -3.68135,1.81128 -4.90518,1.97004 -14.84481,1.92578 -9.71398,-0.0433 -11.82712,-0.32336 -20.46176,-2.71224 -26.91875,-7.44741 -27.12495,-7.49248 -34.50416,-7.54254 -6.29319,-0.0427 -7.87186,0.24608 -12.27744,2.2457 -7.478983,3.39459 -11.313266,8.10981 -18.29713,22.50092 -9.266755,19.09529 -10.94841,28.40105 -7.5404,41.72624 4.033953,15.77261 9.676321,23.06968 36.91731,47.74383 21.62257,19.58513 28.18117,30.71016 28.24091,47.90364 0.043,12.38614 -4.52204,29.13031 -7.94132,29.12783 -1.30897,-8e-4 -1.45771,-0.91 -1.54267,-9.42846 z m 46.31704,-189.17089 c 9.35859,-6.39445 13.32918,-12.79298 11.17136,-18.00243 l -1.01037,-2.43922 -4.11933,3.70379 c -7.91187,7.11373 -24.07726,17.14 -27.63488,17.14 -0.60064,0 -0.94459,0.45136 -0.76433,1.00302 0.59197,1.81168 5.64548,3.02597 11.2969,2.7145 4.98346,-0.27466 5.97233,-0.64298 11.06065,-4.11966 z m -32.82193,-29.38635 c 6.58006,-1.39469 10.18576,-3.61748 16.43131,-10.12934 6.88248,-7.17596 7.93402,-10.21642 7.2527,-20.97095 -0.82899,-13.085801 -4.6142,-19.214821 -12.93347,-20.941891 -8.06407,-1.67409 -15.17757,-0.84893 -22.42945,2.6018 -8.25029,3.92581 -9.83856,3.9167 -10.91008,-0.0626 -1.51512,-5.62671 -7.14147,-8.97815 -15.05958,-8.97051 -9.659375,0.009 -16.793986,3.96977 -20.59879,11.43448 -1.294704,2.5401 -2.192468,4.7799 -1.995033,4.97734 0.197436,0.19743 2.221054,-0.93886 4.496929,-2.52511 5.30863,-3.70002 10.50448,-4.39194 15.121144,-2.01367 8.22983,4.23961 14.28896,15.305801 15.66774,28.615041 1.39256,13.44236 6.05032,18.61874 16.93236,18.81771 2.0746,0.038 5.6855,-0.33661 8.02422,-0.83232 z m -12.39748,-18.95866 c -1.15782,-1.21366 -2.4892,-3.22316 -2.9586,-4.46556 -0.91414,-2.41945 -1.12156,-8.697151 -0.37879,-11.464071 0.96674,-3.60125 11.65854,-6.28572 17.43807,-4.3783 3.80289,1.25506 6.96742,5.05227 6.94471,8.333171 -0.0211,3.05534 -2.36972,8.43672 -4.51235,10.33932 -2.46777,2.19131 -7.16882,3.8421 -10.94136,3.8421 -2.75822,0 -3.9263,-0.46096 -5.59168,-2.20666 z m 10.51235,-8.51636 c 1.35038,-2.83001 0.15959,-6.127841 -2.21265,-6.127841 -3.21411,0 -6.57248,7.182261 -3.88695,8.312691 2.39058,1.00627 5.02764,0.0617 6.0996,-2.18485 z m 67.50194,246.59648 c -0.51226,-0.95717 -1.4397,-9.01321 -2.06097,-17.90231 -2.31384,-33.10643 -7.16494,-79.73046 -8.45779,-81.28825 -1.56355,-1.88396 -3.6914,-2.73354 -8.963,-3.57859 -2.73428,-0.43832 -6.50466,-1.6933 -8.37862,-2.78887 -7.85568,-4.5926 -16.57272,-15.50243 -22.253,-27.85077 l -2.65552,-5.7728 -0.96192,2.40727 c -1.69221,4.23483 -0.53577,14.20248 2.83943,24.47387 2.30436,7.01262 3.04858,10.61463 3.10013,15.0046 0.0983,8.36715 -1.2525,9.18928 -4.2605,2.59313 -1.29423,-2.83811 -4.01555,-7.68031 -6.04735,-10.76045 -6.43895,-9.76119 -10.88544,-19.23055 -12.35255,-26.30635 l -1.36553,-6.58586 -3.19914,-0.53317 c -4.75629,-0.79271 -7.03303,1.57871 -8.3745,8.72273 -0.95069,5.06288 0.22356,10.97313 2.98122,15.0052 1.20678,1.76447 5.7927,6.95215 10.19094,11.52817 9.46346,9.84599 9.98692,10.5815 16.36297,22.99138 3.78269,7.36238 4.92864,10.39414 4.92864,13.03936 0,3.98831 -0.83335,4.35047 -2.85313,1.23993 -3.58895,-5.52711 -8.80565,-10.70459 -19.21348,-19.06904 -20.19403,-16.22933 -24.91567,-22.64034 -26.8812,-36.49913 -0.88155,-6.21573 0.30663,-12.41753 3.8954,-20.33239 2.03174,-4.48092 2.78529,-5.32799 6.21798,-6.98973 4.8921,-2.36823 14.99575,-3.00163 25.33719,-1.5884 5.49968,0.75156 8.93759,1.80893 14.59488,4.48881 8.96181,4.24526 14.30508,5.48327 21.45715,4.97154 8.62493,-0.61711 20.52105,-7.47905 29.37537,-16.94436 7.65754,-8.18593 10.76484,-15.31287 15.09384,-34.61939 4.20827,-18.76807 4.56782,-19.96926 8.08144,-26.99844 2.88195,-5.76551 5.23808,-8.08868 9.69538,-9.55971 8.63936,-2.85126 22.50795,4.31488 27.01834,13.96085 1.06511,2.27787 4.5417,11.34265 7.72575,20.14395 8.95599,24.75608 13.36639,33.4056 22.1775,43.49379 4.5811,5.24508 4.51766,5.90125 -0.5705,5.90125 -6.72498,0 -18.17953,-9.64648 -23.34413,-19.65934 -1.59347,-3.08933 -4.77842,-10.85276 -7.07767,-17.25208 -5.46657,-15.21465 -8.76167,-22.00357 -12.98814,-26.75957 -2.98868,-3.36312 -3.96581,-3.94743 -7.20787,-4.31019 -3.26318,-0.36513 -4.01909,-0.15108 -5.81756,1.6474 -2.91271,2.9127 -2.66191,5.33831 0.79543,7.69305 9.55574,6.5083 17.06897,20.10783 18.43259,33.36443 0.31779,3.08933 1.2855,7.13554 2.15049,8.99157 1.54093,3.30644 1.43495,8.26051 -0.17671,8.26051 -0.37196,0 -2.23899,-1.18161 -4.14896,-2.6258 -2.78918,-2.10899 -4.39551,-4.47896 -8.16136,-12.04127 -5.78617,-11.61937 -10.01359,-16.58686 -14.56945,-17.12004 -5.43843,-0.63647 -5.76945,0.36214 -2.10476,6.34953 7.28844,11.90792 10.5302,20.85616 10.5302,29.06661 l 0,5.06484 8.62603,6.35304 c 19.40839,14.2942 48.15233,32.30543 69.20592,43.3651 12.60347,6.62074 13.36062,8.30986 4.23593,9.44991 -7.92771,0.9905 -30.80837,-4.10188 -45.06622,-10.03006 -3.26036,-1.3556 -6.06808,-2.46473 -6.23938,-2.46473 -1.50405,0 4.73814,7.74987 17.08792,21.2152 8.1063,8.83851 14.73872,16.48756 14.73872,16.99786 0,0.5103 -0.6951,1.78028 -1.54468,2.82218 l -1.54468,1.89434 -8.22791,-2.80848 c -11.54469,-3.94061 -16.57368,-7.10687 -39.82788,-25.07569 -1.57065,-1.21366 -3.16166,-2.20666 -3.53558,-2.20666 -1.72742,0 3.27228,9.36984 14.15955,26.53614 6.52564,10.28916 12.01368,19.27693 12.19567,19.97283 0.18198,0.6959 -0.51339,2.52231 -1.54526,4.05869 -1.41424,2.10569 -2.53921,2.85736 -4.56943,3.05314 -6.64602,0.64091 -9.15733,-1.57568 -24.22089,-21.37848 -6.27152,-8.24463 -11.75175,-15.35133 -12.1783,-15.79267 -1.87071,-1.93554 0.66069,9.02481 5.15461,22.3182 5.08025,15.02784 6.35396,22.52167 4.93533,29.03682 -0.56708,2.60431 -1.08032,3.25479 -2.72117,3.44884 -1.55875,0.18434 -2.94292,-0.73529 -6.0388,-4.01211 -5.55243,-5.87694 -7.64096,-9.78562 -11.91439,-22.29771 -2.03339,-5.95356 -4.01013,-11.1377 -4.39273,-11.5203 -1.07281,-1.07282 -2.28389,6.5987 -3.23567,20.4962 -0.95146,13.89278 -2.83951,22.69295 -6.21916,28.98756 -2.45903,4.57995 -4.43605,5.56377 -5.8545,2.91337 z m -1.70232,-123.41564 c 4.12134,-1.56598 12.96573,-7.51131 15.88993,-10.68144 3.66073,-3.96861 7.49847,-12.26475 7.49847,-16.20964 0,-2.61342 -0.36982,-3.91196 -1.20543,-4.23261 -2.32791,-0.89331 -5.09511,0.5403 -7.56769,3.92061 -3.86642,5.28585 -11.97714,13.21232 -16.78464,16.40336 -2.39369,1.58884 -6.73995,3.72316 -9.65836,4.74292 -6.21361,2.17121 -6.9272,3.92466 -2.49772,6.13744 3.64188,1.81932 9.41062,1.78684 14.32544,-0.0806 z m -47.62589,110.44953 c -0.20755,-0.57069 -1.30835,-3.92635 -2.44624,-7.45701 -4.57178,-14.18546 -13.19076,-26.21823 -35.35183,-49.35395 -27.914925,-29.14262 -35.1446,-40.84534 -36.188801,-58.57901 -0.555085,-9.42701 1.36827,-17.95876 6.286879,-27.88781 2.746791,-5.54485 3.882372,-6.9971 6.815451,-8.716 12.261181,-7.18553 23.027141,-7.54741 54.434511,-1.82972 14.39472,2.62055 20.92389,2.86821 28.50572,1.08128 9.97322,-2.35056 16.12561,-7.78032 21.71919,-19.16817 3.17544,-6.46479 5.50709,-14.76658 8.80153,-31.33761 5.29975,-26.65771 13.1367,-37.347291 30.67481,-41.840341 12.49371,-3.20074 28.70579,3.32677 39.00771,15.705791 8.04604,9.6683 13.30406,20.16566 21.33,42.5842 7.21441,20.15172 8.67952,23.54766 13.20966,30.61833 10.1009,15.76554 25.4092,27.2612 40.39658,30.33552 4.48477,0.91994 4.61393,1.01998 4.61393,3.57365 0,1.5912 -0.62084,3.18908 -1.57435,4.052 -1.42884,1.29307 -2.18905,1.33828 -8.22483,0.48905 -25.89292,-3.64311 -38.01967,-11.01906 -46.93262,-28.54623 -5.28581,-10.39446 -9.48733,-20.36792 -16.72005,-39.68958 -5.6296,-15.03906 -8.64735,-22.54251 -12.33302,-30.66541 -2.11805,-4.66797 -7.53683,-9.51633 -14.42714,-12.90841 -4.62813,-2.27842 -6.05961,-2.59407 -11.709,-2.58188 -7.26224,0.0157 -10.87814,1.45217 -16.54709,6.57373 -7.06149,6.37963 -9.72929,13.84364 -12.41583,34.73712 -2.24097,17.42833 -3.52256,23.20698 -6.58461,29.68962 -4.18623,8.86265 -15.28834,16.93201 -27.14917,19.73285 -7.68037,1.81366 -18.56448,1.11708 -38.42536,-2.45922 -29.64422,-5.33795 -38.88109,-3.69572 -44.51752,7.91481 -3.967104,8.17189 -5.142321,20.75271 -2.784263,29.80591 2.929813,11.2483 9.573533,20.05494 32.061883,42.49994 22.22687,22.184 27.7995,29.90339 31.25741,43.29877 1.67262,6.47949 1.655,16.74902 -0.0316,18.43567 -2.21558,2.21558 -4.32834,3.05684 -4.7519,1.89211 z"
     style="fill:#ffffff;fill-opacity:1" /></svg>